<svg width="39" height="40" viewBox="0 0 39 40" fill="none" xmlns="http://www.w3.org/2000/svg">
<path fill-rule="evenodd" clip-rule="evenodd" d="M11.5 31C20.6127 31 28 23.6127 28 14.5C28 8.24412 24.5185 2.80141 19.3873 0.00366211C30.2543 0.210069 39 9.08369 39 20C39 31.0457 30.0457 40 19 40C10.1797 40 2.69298 34.2903 0.0342712 26.3654C3.00292 29.2346 7.0453 31 11.5 31Z" fill="#FFBD1A"/>
<path fill-rule="evenodd" clip-rule="evenodd" d="M0.5 6C3.92161 6 6.72574 3.35622 6.98106 0H7.01894C7.2617 3.1912 9.8088 5.7383 13 5.98106V6.01894C9.64378 6.27426 7 9.07839 7 12.5C7 8.91015 4.08985 6 0.5 6ZM0 6.01894C0.165021 6.00639 0.331764 6 0.5 6C0.331764 6 0.165021 5.99361 0 5.98106L0 6.01894ZM7 12.5C7 12.6682 7.00639 12.835 7.01894 13H6.98106C6.99361 12.835 7 12.6682 7 12.5Z" fill="#FFBD1A"/>
</svg>
