<svg width="33" height="51" viewBox="0 0 33 51" fill="none" xmlns="http://www.w3.org/2000/svg">
<path d="M9.00863 42.9426L7.10611 47.9807C6.81621 48.7508 7.14054 49.6379 7.83269 49.9605C8.52485 50.2831 9.32209 49.9222 9.612 49.152L11.5145 44.1139C11.8044 43.3438 11.4801 42.4567 10.7879 42.1341C10.0958 41.8116 9.29854 42.1724 9.00863 42.9426V42.9426ZM18.0682 40.9265L16.1657 45.9647C15.8758 46.7348 16.2001 47.6219 16.8923 47.9444C17.5844 48.267 18.3817 47.9061 18.6716 47.136L20.5741 42.0978C20.864 41.3277 20.5397 40.4406 19.8475 40.1181C19.1554 39.7955 18.3581 40.1564 18.0682 40.9265Z" fill="#66AFEB"/>
<path fill-rule="evenodd" clip-rule="evenodd" d="M9.70023 25.5715C17.4098 25.5715 23.6595 19.4771 23.6595 11.9592C23.6595 6.79825 20.7141 2.3081 16.3731 0C25.5667 0.170282 32.9658 7.49088 32.9658 16.4967C32.9658 25.6092 25.3902 32.9963 16.0454 32.9963C8.58323 32.9963 2.24932 28.2859 0 21.748C2.51153 24.1151 5.93147 25.5715 9.70023 25.5715Z" fill="#FFBD1A"/>
<path d="M7.24767 37.1767C3.24514 37.1767 0 33.5659 0 29.1125C0 24.659 3.24514 21.0482 7.24767 21.0482C8.00324 21.0482 8.72982 21.1772 9.41473 21.4151C10.4348 17.7015 13.5405 15 17.2132 15C21.7158 15 25.3669 19.0624 25.3669 24.0723C25.3669 24.5461 25.3342 25.0098 25.2708 25.4634C25.8651 25.2154 26.5065 25.0803 27.1788 25.0803C30.1811 25.0803 32.6145 27.7879 32.6145 31.1285C32.6145 34.4691 30.1811 37.1767 27.1788 37.1767H7.24767Z" fill="url(#paint0_linear_14_919)"/>
<defs>
<linearGradient id="paint0_linear_14_919" x1="16.3073" y1="15" x2="16.3073" y2="37.1767" gradientUnits="userSpaceOnUse">
<stop stop-color="#9FC7FF"/>
<stop offset="1" stop-color="#9BC1F5"/>
</linearGradient>
</defs>
</svg>
